#define noname_width 128
#define noname_height 192
static char noname_bits[] = {
 0xff,0xff,0xff,0xff,0xff,0xff,0xff,0xff,0xff,0xff,0xff,0xff,0xff,0xff,0xff,
 0xff,0x1f,0x00,0x00,0x00,0x00,0x00,0x00,0x00,0x00,0x00,0x00,0x00,0x00,0x00,
 0x00,0xf8,0x07,0x00,0x00,0x00,0x00,0x00,0x00,0x00,0x00,0x00,0x00,0x00,0x00,
 0x00,0x00,0xe0,0x03,0x00,0x00,0x00,0x00,0x00,0x00,0x00,0x00,0x00,0x00,0x00,
 0x00,0x00,0x00,0xc0,0x03,0x00,0x00,0x00,0x00,0x00,0x00,0x00,0x00,0x00,0x00,
 0x00,0x00,0x00,0x00,0xc0,0x01,0x00,0x00,0x00,0x00,0x00,0x00,0x00,0x00,0x00,
 0x00,0x00,0x00,0x00,0x00,0x80,0x31,0x0c,0x00,0x00,0x00,0x00,0x00,0x00,0x00,
 0x00,0x00,0x00,0x00,0x00,0x0c,0x83,0x39,0x1e,0x00,0x00,0x00,0x00,0x00,0x00,
 0x00,0x00,0x00,0x00,0x00,0x00,0x8e,0x87,0x39,0x33,0x00,0x00,0x00,0x00,0x00,
 0x00,0x00,0x00,0x00,0x00,0x00,0x00,0xce,0x8c,0x31,0x33,0x00,0x00,0x00,0x00,
 0x00,0x00,0x00,0x00,0x00,0x00,0x00,0x00,0xcc,0x8c,0xb1,0x61,0x00,0x00,0x00,
 0x00,0x00,0x00,0x00,0x00,0x00,0x00,0x00,0x00,0x6c,0x98,0xb1,0x61,0x00,0x00,
 0x00,0x00,0x00,0x00,0x00,0x00,0x00,0x00,0x00,0x00,0x6c,0x98,0xb1,0x61,0x00,
 0x00,0x00,0x00,0x00,0x00,0x00,0x00,0x00,0x00,0x00,0x00,0x6c,0x98,0xb1,0x61,
 0x00,0x00,0x00,0x00,0x00,0x00,0x00,0x00,0x00,0x00,0x00,0x00,0x6c,0x98,0xb1,
 0x61,0x00,0x00,0x00,0x00,0x00,0x00,0x00,0x00,0x00,0x00,0x00,0x00,0x6c,0x98,
 0x31,0x33,0x00,0x00,0x00,0x00,0x00,0x00,0x00,0x00,0x00,0x00,0x00,0x00,0xcc,
 0x8c,0x31,0x33,0x00,0x00,0x00,0x00,0x00,0x00,0x00,0x00,0x00,0x00,0x00,0x00,
 0xcc,0x8c,0x31,0x1e,0x00,0x00,0x00,0x00,0x00,0x00,0x00,0x00,0x00,0x00,0x00,
 0x00,0x8c,0x87,0x79,0x0c,0x00,0x00,0x60,0x00,0x00,0x00,0x00,0x00,0x00,0x06,
 0x00,0x00,0x1e,0x83,0x01,0x00,0x00,0x00,0xf8,0x01,0x00,0x00,0x00,0x00,0x80,
 0x1f,0x00,0x00,0x00,0x80,0x01,0x00,0x00,0x00,0xfc,0x03,0x00,0x00,0x00,0x00,
 0xc0,0x3f,0x00,0x00,0x00,0x80,0x01,0x00,0x00,0x00,0xfe,0x07,0x00,0x00,0x00,
 0x00,0xe0,0x7f,0x00,0x00,0x00,0x80,0x01,0x00,0x00,0x00,0xfe,0x07,0x00,0x00,
 0x00,0x00,0xe0,0x7f,0x00,0x00,0x00,0x80,0x01,0x03,0x00,0x00,0xff,0x0f,0x00,
 0x00,0x00,0x00,0xf0,0xff,0x00,0x00,0xc0,0x80,0x81,0x07,0x00,0x00,0xff,0x0f,
 0x00,0x00,0x00,0x00,0xf0,0xff,0x00,0x00,0xe0,0x81,0x81,0x07,0x00,0x00,0xfe,
 0x07,0x00,0x00,0x00,0x00,0xe0,0x7f,0x00,0x00,0xe0,0x81,0x81,0x07,0x00,0x00,
 0xfe,0x07,0x00,0x00,0x00,0x00,0xe0,0x7f,0x00,0x00,0xe0,0x81,0x21,0x13,0x00,
 0x00,0xfc,0x03,0x00,0x00,0x00,0x00,0xc0,0x3f,0x00,0x00,0xc8,0x84,0x71,0x3b,
 0x00,0x30,0xf8,0xc1,0x00,0x00,0x00,0x00,0x83,0x1f,0x0c,0x00,0xdc,0x8e,0xf9,
 0x7f,0x00,0xfc,0xf0,0xf0,0x03,0x00,0x00,0xc0,0x0f,0x0f,0x3f,0x00,0xfe,0x9f,
 0xf9,0x7f,0x00,0xfe,0xf1,0xf8,0x07,0x00,0x00,0xe0,0x1f,0x8f,0x7f,0x00,0xfe,
 0x9f,0x71,0x3b,0x00,0xff,0xf3,0xfc,0x0f,0x00,0x00,0xf0,0x3f,0xcf,0xff,0x00,
 0xdc,0x8e,0x21,0x13,0x00,0xff,0xff,0xff,0x0f,0x00,0x00,0xf0,0xff,0xff,0xff,
 0x00,0xc8,0x84,0x01,0x03,0x80,0xff,0xff,0xff,0x1f,0x00,0x00,0xf8,0xff,0xff,
 0xff,0x01,0xc0,0x80,0x01,0x03,0x80,0xff,0xff,0xff,0x1f,0x00,0x00,0xf8,0xff,
 0xff,0xff,0x01,0xc0,0x80,0x01,0x00,0x00,0xff,0xff,0xff,0x0f,0x00,0x00,0xf0,
 0xff,0xff,0xff,0x00,0x00,0x80,0x01,0x00,0x00,0xff,0xf3,0xfc,0x0f,0x00,0x00,
 0xf0,0x3f,0xcf,0xff,0x00,0x00,0x80,0x01,0x00,0x00,0xfe,0xf1,0xf8,0x07,0x00,
 0x00,0xe0,0x1f,0x8f,0x7f,0x00,0x00,0x80,0x01,0x00,0x00,0xfc,0xf0,0xf0,0x03,
 0x00,0x00,0xc0,0x0f,0x0f,0x3f,0x00,0x00,0x80,0x01,0x00,0x00,0x30,0xf0,0xc0,
 0x00,0x80,0x01,0x00,0x03,0x0f,0x0c,0x00,0x00,0x80,0x01,0x00,0x00,0x00,0xf0,
 0x00,0x00,0xe0,0x07,0x00,0x00,0x0f,0x00,0x00,0x00,0x80,0x01,0x00,0x00,0x00,
 0xf0,0x00,0x00,0xf0,0x0f,0x00,0x00,0x0f,0x00,0x00,0x00,0x80,0x01,0x00,0x00,
 0x00,0xf0,0x00,0x00,0xf8,0x1f,0x00,0x00,0x0f,0x00,0x00,0x00,0x80,0x01,0x00,
 0x00,0x00,0xf0,0x00,0x00,0xf8,0x1f,0x00,0x00,0x0f,0x00,0x00,0x00,0x80,0x01,
 0x00,0x00,0x00,0xf0,0x00,0x00,0xfc,0x3f,0x00,0x00,0x0f,0x00,0x00,0x00,0x80,
 0x01,0x00,0x00,0x00,0xf0,0x00,0x00,0xfc,0x3f,0x00,0x00,0x0f,0x00,0x00,0x00,
 0x80,0x01,0x00,0x00,0x00,0xf0,0x00,0x00,0xf8,0x1f,0x00,0x00,0x0f,0x00,0x00,
 0x00,0x80,0x01,0x00,0x00,0x00,0xf0,0x00,0x00,0xf8,0x1f,0x00,0x00,0x0f,0x00,
 0x00,0x00,0x80,0x01,0x00,0x00,0x00,0x00,0x00,0x00,0xf0,0x0f,0x00,0x00,0x00,
 0x00,0x00,0x00,0x80,0x01,0x00,0x00,0x00,0x00,0x00,0xc0,0xe0,0x07,0x03,0x00,
 0x00,0x00,0x00,0x00,0x80,0x01,0x00,0x00,0x00,0x00,0x00,0xf0,0xc3,0xc3,0x0f,
 0x00,0x00,0x00,0x00,0x00,0x80,0x01,0x00,0x00,0x00,0x00,0x00,0xf8,0xc7,0xe3,
 0x1f,0x00,0x00,0x00,0x00,0x00,0x80,0x01,0x00,0x00,0x00,0x00,0x00,0xfc,0xcf,
 0xf3,0x3f,0x00,0x00,0x00,0x00,0x00,0x80,0x01,0x00,0x00,0x00,0x00,0x00,0xfc,
 0xff,0xff,0x3f,0x00,0x00,0x00,0x00,0x00,0x80,0x01,0x00,0x00,0x00,0x00,0x00,
 0xfe,0xff,0xff,0x7f,0x00,0x00,0x00,0x00,0x00,0x80,0x01,0x00,0x00,0x00,0x00,
 0x00,0xfe,0xff,0xff,0x7f,0x00,0x00,0x00,0x00,0x00,0x80,0x01,0x00,0x00,0x00,
 0x00,0x00,0xfc,0xff,0xff,0x3f,0x00,0x00,0x00,0x00,0x00,0x80,0x01,0x00,0x00,
 0x00,0x00,0x00,0xfc,0xcf,0xf3,0x3f,0x00,0x00,0x00,0x00,0x00,0x80,0x01,0x00,
 0x00,0x00,0x00,0x00,0xf8,0xc7,0xe3,0x1f,0x00,0x00,0x00,0x00,0x00,0x80,0x01,
 0x00,0x00,0x00,0x00,0x00,0xf0,0xc3,0xc3,0x0f,0x00,0x00,0x00,0x00,0x00,0x80,
 0x01,0x00,0x00,0x00,0x60,0x00,0xc0,0xc0,0x03,0x03,0x00,0x06,0x00,0x00,0x00,
 0x80,0x01,0x00,0x00,0x00,0xf8,0x01,0x00,0xc0,0x03,0x00,0x80,0x1f,0x00,0x00,
 0x00,0x80,0x01,0x00,0x00,0x00,0xfc,0x03,0x00,0xc0,0x03,0x00,0xc0,0x3f,0x00,
 0x00,0x00,0x80,0x01,0x00,0x00,0x00,0xfe,0x07,0x00,0xc0,0x03,0x00,0xe0,0x7f,
 0x00,0x00,0x00,0x80,0x01,0x00,0x00,0x00,0xfe,0x07,0x00,0xc0,0x03,0x00,0xe0,
 0x7f,0x00,0x00,0x00,0x80,0x01,0x00,0x00,0x00,0xff,0x0f,0x00,0xc0,0x03,0x00,
 0xf0,0xff,0x00,0x00,0x00,0x80,0x01,0x00,0x00,0x00,0xff,0x0f,0x00,0xc0,0x03,
 0x00,0xf0,0xff,0x00,0x00,0x00,0x80,0x01,0x00,0x00,0x00,0xfe,0x07,0x00,0xc0,
 0x03,0x00,0xe0,0x7f,0x00,0x00,0x00,0x80,0x01,0x00,0x00,0x00,0xfe,0x07,0x00,
 0xc0,0x03,0x00,0xe0,0x7f,0x00,0x00,0x00,0x80,0x01,0x00,0x00,0x00,0xfc,0x03,
 0x00,0x00,0x00,0x00,0xc0,0x3f,0x00,0x00,0x00,0x80,0x01,0x00,0x00,0x30,0xf8,
 0xc1,0x00,0x00,0x00,0x00,0x83,0x1f,0x0c,0x00,0x00,0x80,0x01,0x00,0x00,0xfc,
 0xf0,0xf0,0x03,0x00,0x00,0xc0,0x0f,0x0f,0x3f,0x00,0x00,0x80,0x01,0x00,0x00,
 0xfe,0xf1,0xf8,0x07,0x00,0x00,0xe0,0x1f,0x8f,0x7f,0x00,0x00,0x80,0x01,0x00,
 0x00,0xff,0xf3,0xfc,0x0f,0x00,0x00,0xf0,0x3f,0xcf,0xff,0x00,0x00,0x80,0x01,
 0x00,0x00,0xff,0xff,0xff,0x0f,0x00,0x00,0xf0,0xff,0xff,0xff,0x00,0x00,0x80,
 0x01,0x00,0x80,0xff,0xff,0xff,0x1f,0x00,0x00,0xf8,0xff,0xff,0xff,0x01,0x00,
 0x80,0x01,0x00,0x80,0xff,0xff,0xff,0x1f,0x00,0x00,0xf8,0xff,0xff,0xff,0x01,
 0x00,0x80,0x01,0x00,0x00,0xff,0xff,0xff,0x0f,0x00,0x00,0xf0,0xff,0xff,0xff,
 0x00,0x00,0x80,0x01,0x00,0x00,0xff,0xf3,0xfc,0x0f,0x00,0x00,0xf0,0x3f,0xcf,
 0xff,0x00,0x00,0x80,0x01,0x00,0x00,0xfe,0xf1,0xf8,0x07,0x00,0x00,0xe0,0x1f,
 0x8f,0x7f,0x00,0x00,0x80,0x01,0x00,0x00,0xfc,0xf0,0xf0,0x03,0x00,0x00,0xc0,
 0x0f,0x0f,0x3f,0x00,0x00,0x80,0x01,0x00,0x00,0x30,0xf0,0xc0,0x00,0x00,0x00,
 0x00,0x03,0x0f,0x0c,0x00,0x00,0x80,0x01,0x00,0x00,0x00,0xf0,0x00,0x00,0x00,
 0x00,0x00,0x00,0x0f,0x00,0x00,0x00,0x80,0x01,0x00,0x00,0x00,0xf0,0x00,0x00,
 0x00,0x00,0x00,0x00,0x0f,0x00,0x00,0x00,0x80,0x01,0x00,0x00,0x00,0xf0,0x00,
 0x00,0x00,0x00,0x00,0x00,0x0f,0x00,0x00,0x00,0x80,0x01,0x00,0x00,0x00,0xf0,
 0x00,0x00,0x00,0x00,0x00,0x00,0x0f,0x00,0x00,0x00,0x80,0x01,0x00,0x00,0x00,
 0xf0,0x00,0x00,0x00,0x00,0x00,0x00,0x0f,0x00,0x00,0x00,0x80,0x01,0x00,0x00,
 0x00,0xf0,0x00,0x00,0x00,0x00,0x00,0x00,0x0f,0x00,0x00,0x00,0x80,0x01,0x00,
 0x00,0x00,0xf0,0x00,0x00,0x00,0x00,0x00,0x00,0x0f,0x00,0x00,0x00,0x80,0x01,
 0x00,0x00,0x00,0xf0,0x00,0x00,0x00,0x00,0x00,0x00,0x0f,0x00,0x00,0x00,0x80,
 0x01,0x00,0x00,0x00,0x00,0x00,0x00,0x00,0x00,0x00,0x00,0x00,0x00,0x00,0x00,
 0x80,0x01,0x00,0x00,0x00,0x00,0x00,0x00,0x00,0x00,0x00,0x00,0x00,0x00,0x00,
 0x00,0x80,0x01,0x00,0x00,0x00,0x00,0x00,0x00,0x00,0x00,0x00,0x00,0x00,0x00,
 0x00,0x00,0x80,0x01,0x00,0x00,0x00,0x00,0x00,0x00,0x00,0x00,0x00,0x00,0x00,
 0x00,0x00,0x00,0x80,0x01,0x00,0x00,0x00,0x00,0x00,0x00,0x00,0x00,0x00,0x00,
 0x00,0x00,0x00,0x00,0x80,0x01,0x00,0x00,0x00,0x00,0x00,0x00,0x00,0x00,0x00,
 0x00,0x00,0x00,0x00,0x00,0x80,0x01,0x00,0x00,0x00,0x00,0x00,0x00,0x00,0x00,
 0x00,0x00,0x00,0x00,0x00,0x00,0x80,0x01,0x00,0x00,0x00,0x00,0x00,0x00,0x00,
 0x00,0x00,0x00,0x00,0x00,0x00,0x00,0x80,0x01,0x00,0x00,0x00,0x00,0x00,0x00,
 0x00,0x00,0x00,0x00,0x00,0x00,0x00,0x00,0x80,0x01,0x00,0x00,0x00,0x00,0x00,
 0x00,0x00,0x00,0x00,0x00,0x00,0x00,0x00,0x00,0x80,0x01,0x00,0x00,0x00,0x00,
 0x00,0x00,0x00,0x00,0x00,0x00,0x00,0x00,0x00,0x00,0x80,0x01,0x00,0x00,0x00,
 0x00,0x00,0x00,0x00,0x00,0x00,0x00,0x00,0x00,0x00,0x00,0x80,0x01,0x00,0x00,
 0x00,0xf0,0x00,0x00,0x00,0x00,0x00,0x00,0x0f,0x00,0x00,0x00,0x80,0x01,0x00,
 0x00,0x00,0xf0,0x00,0x00,0x00,0x00,0x00,0x00,0x0f,0x00,0x00,0x00,0x80,0x01,
 0x00,0x00,0x00,0xf0,0x00,0x00,0x00,0x00,0x00,0x00,0x0f,0x00,0x00,0x00,0x80,
 0x01,0x00,0x00,0x00,0xf0,0x00,0x00,0x00,0x00,0x00,0x00,0x0f,0x00,0x00,0x00,
 0x80,0x01,0x00,0x00,0x00,0xf0,0x00,0x00,0x00,0x00,0x00,0x00,0x0f,0x00,0x00,
 0x00,0x80,0x01,0x00,0x00,0x00,0xf0,0x00,0x00,0x00,0x00,0x00,0x00,0x0f,0x00,
 0x00,0x00,0x80,0x01,0x00,0x00,0x00,0xf0,0x00,0x00,0x00,0x00,0x00,0x00,0x0f,
 0x00,0x00,0x00,0x80,0x01,0x00,0x00,0x00,0xf0,0x00,0x00,0x00,0x00,0x00,0x00,
 0x0f,0x00,0x00,0x00,0x80,0x01,0x00,0x00,0x30,0xf0,0xc0,0x00,0x00,0x00,0x00,
 0x03,0x0f,0x0c,0x00,0x00,0x80,0x01,0x00,0x00,0xfc,0xf0,0xf0,0x03,0x00,0x00,
 0xc0,0x0f,0x0f,0x3f,0x00,0x00,0x80,0x01,0x00,0x00,0xfe,0xf1,0xf8,0x07,0x00,
 0x00,0xe0,0x1f,0x8f,0x7f,0x00,0x00,0x80,0x01,0x00,0x00,0xff,0xf3,0xfc,0x0f,
 0x00,0x00,0xf0,0x3f,0xcf,0xff,0x00,0x00,0x80,0x01,0x00,0x00,0xff,0xff,0xff,
 0x0f,0x00,0x00,0xf0,0xff,0xff,0xff,0x00,0x00,0x80,0x01,0x00,0x80,0xff,0xff,
 0xff,0x1f,0x00,0x00,0xf8,0xff,0xff,0xff,0x01,0x00,0x80,0x01,0x00,0x80,0xff,
 0xff,0xff,0x1f,0x00,0x00,0xf8,0xff,0xff,0xff,0x01,0x00,0x80,0x01,0x00,0x00,
 0xff,0xff,0xff,0x0f,0x00,0x00,0xf0,0xff,0xff,0xff,0x00,0x00,0x80,0x01,0x00,
 0x00,0xff,0xf3,0xfc,0x0f,0x00,0x00,0xf0,0x3f,0xcf,0xff,0x00,0x00,0x80,0x01,
 0x00,0x00,0xfe,0xf1,0xf8,0x07,0x00,0x00,0xe0,0x1f,0x8f,0x7f,0x00,0x00,0x80,
 0x01,0x00,0x00,0xfc,0xf0,0xf0,0x03,0x00,0x00,0xc0,0x0f,0x0f,0x3f,0x00,0x00,
 0x80,0x01,0x00,0x00,0x30,0xf8,0xc1,0x00,0x00,0x00,0x00,0x83,0x1f,0x0c,0x00,
 0x00,0x80,0x01,0x00,0x00,0x00,0xfc,0x03,0x00,0x00,0x00,0x00,0xc0,0x3f,0x00,
 0x00,0x00,0x80,0x01,0x00,0x00,0x00,0xfe,0x07,0x00,0xc0,0x03,0x00,0xe0,0x7f,
 0x00,0x00,0x00,0x80,0x01,0x00,0x00,0x00,0xfe,0x07,0x00,0xc0,0x03,0x00,0xe0,
 0x7f,0x00,0x00,0x00,0x80,0x01,0x00,0x00,0x00,0xff,0x0f,0x00,0xc0,0x03,0x00,
 0xf0,0xff,0x00,0x00,0x00,0x80,0x01,0x00,0x00,0x00,0xff,0x0f,0x00,0xc0,0x03,
 0x00,0xf0,0xff,0x00,0x00,0x00,0x80,0x01,0x00,0x00,0x00,0xfe,0x07,0x00,0xc0,
 0x03,0x00,0xe0,0x7f,0x00,0x00,0x00,0x80,0x01,0x00,0x00,0x00,0xfe,0x07,0x00,
 0xc0,0x03,0x00,0xe0,0x7f,0x00,0x00,0x00,0x80,0x01,0x00,0x00,0x00,0xfc,0x03,
 0x00,0xc0,0x03,0x00,0xc0,0x3f,0x00,0x00,0x00,0x80,0x01,0x00,0x00,0x00,0xf8,
 0x01,0x00,0xc0,0x03,0x00,0x80,0x1f,0x00,0x00,0x00,0x80,0x01,0x00,0x00,0x00,
 0x60,0x00,0xc0,0xc0,0x03,0x03,0x00,0x06,0x00,0x00,0x00,0x80,0x01,0x00,0x00,
 0x00,0x00,0x00,0xf0,0xc3,0xc3,0x0f,0x00,0x00,0x00,0x00,0x00,0x80,0x01,0x00,
 0x00,0x00,0x00,0x00,0xf8,0xc7,0xe3,0x1f,0x00,0x00,0x00,0x00,0x00,0x80,0x01,
 0x00,0x00,0x00,0x00,0x00,0xfc,0xcf,0xf3,0x3f,0x00,0x00,0x00,0x00,0x00,0x80,
 0x01,0x00,0x00,0x00,0x00,0x00,0xfc,0xff,0xff,0x3f,0x00,0x00,0x00,0x00,0x00,
 0x80,0x01,0x00,0x00,0x00,0x00,0x00,0xfe,0xff,0xff,0x7f,0x00,0x00,0x00,0x00,
 0x00,0x80,0x01,0x00,0x00,0x00,0x00,0x00,0xfe,0xff,0xff,0x7f,0x00,0x00,0x00,
 0x00,0x00,0x80,0x01,0x00,0x00,0x00,0x00,0x00,0xfc,0xff,0xff,0x3f,0x00,0x00,
 0x00,0x00,0x00,0x80,0x01,0x00,0x00,0x00,0x00,0x00,0xfc,0xcf,0xf3,0x3f,0x00,
 0x00,0x00,0x00,0x00,0x80,0x01,0x00,0x00,0x00,0x00,0x00,0xf8,0xc7,0xe3,0x1f,
 0x00,0x00,0x00,0x00,0x00,0x80,0x01,0x00,0x00,0x00,0x00,0x00,0xf0,0xc3,0xc3,
 0x0f,0x00,0x00,0x00,0x00,0x00,0x80,0x01,0x00,0x00,0x00,0x00,0x00,0xc0,0xe0,
 0x07,0x03,0x00,0x00,0x00,0x00,0x00,0x80,0x01,0x00,0x00,0x00,0x00,0x00,0x00,
 0xf0,0x0f,0x00,0x00,0x00,0x00,0x00,0x00,0x80,0x01,0x00,0x00,0x00,0xf0,0x00,
 0x00,0xf8,0x1f,0x00,0x00,0x0f,0x00,0x00,0x00,0x80,0x01,0x00,0x00,0x00,0xf0,
 0x00,0x00,0xf8,0x1f,0x00,0x00,0x0f,0x00,0x00,0x00,0x80,0x01,0x00,0x00,0x00,
 0xf0,0x00,0x00,0xfc,0x3f,0x00,0x00,0x0f,0x00,0x00,0x00,0x80,0x01,0x00,0x00,
 0x00,0xf0,0x00,0x00,0xfc,0x3f,0x00,0x00,0x0f,0x00,0x00,0x00,0x80,0x01,0x00,
 0x00,0x00,0xf0,0x00,0x00,0xf8,0x1f,0x00,0x00,0x0f,0x00,0x00,0x00,0x80,0x01,
 0x00,0x00,0x00,0xf0,0x00,0x00,0xf8,0x1f,0x00,0x00,0x0f,0x00,0x00,0x00,0x80,
 0x01,0x00,0x00,0x00,0xf0,0x00,0x00,0xf0,0x0f,0x00,0x00,0x0f,0x00,0x00,0x00,
 0x80,0x01,0x00,0x00,0x00,0xf0,0x00,0x00,0xe0,0x07,0x00,0x00,0x0f,0x00,0x00,
 0x00,0x80,0x01,0x00,0x00,0x30,0xf0,0xc0,0x00,0x80,0x01,0x00,0x03,0x0f,0x0c,
 0x00,0x00,0x80,0x01,0x00,0x00,0xfc,0xf0,0xf0,0x03,0x00,0x00,0xc0,0x0f,0x0f,
 0x3f,0x00,0x00,0x80,0x01,0x00,0x00,0xfe,0xf1,0xf8,0x07,0x00,0x00,0xe0,0x1f,
 0x8f,0x7f,0x00,0x00,0x80,0x01,0x00,0x00,0xff,0xf3,0xfc,0x0f,0x00,0x00,0xf0,
 0x3f,0xcf,0xff,0x00,0x00,0x80,0x01,0x00,0x00,0xff,0xff,0xff,0x0f,0x00,0x00,
 0xf0,0xff,0xff,0xff,0x00,0x00,0x80,0x01,0x03,0x80,0xff,0xff,0xff,0x1f,0x00,
 0x00,0xf8,0xff,0xff,0xff,0x01,0xc0,0x80,0x01,0x03,0x80,0xff,0xff,0xff,0x1f,
 0x00,0x00,0xf8,0xff,0xff,0xff,0x01,0xc0,0x80,0x21,0x13,0x00,0xff,0xff,0xff,
 0x0f,0x00,0x00,0xf0,0xff,0xff,0xff,0x00,0xc8,0x84,0x71,0x3b,0x00,0xff,0xf3,
 0xfc,0x0f,0x00,0x00,0xf0,0x3f,0xcf,0xff,0x00,0xdc,0x8e,0xf9,0x7f,0x00,0xfe,
 0xf1,0xf8,0x07,0x00,0x00,0xe0,0x1f,0x8f,0x7f,0x00,0xfe,0x9f,0xf9,0x7f,0x00,
 0xfc,0xf0,0xf0,0x03,0x00,0x00,0xc0,0x0f,0x0f,0x3f,0x00,0xfe,0x9f,0x71,0x3b,
 0x00,0x30,0xf8,0xc1,0x00,0x00,0x00,0x00,0x83,0x1f,0x0c,0x00,0xdc,0x8e,0x21,
 0x13,0x00,0x00,0xfc,0x03,0x00,0x00,0x00,0x00,0xc0,0x3f,0x00,0x00,0xc8,0x84,
 0x81,0x07,0x00,0x00,0xfe,0x07,0x00,0x00,0x00,0x00,0xe0,0x7f,0x00,0x00,0xe0,
 0x81,0x81,0x07,0x00,0x00,0xfe,0x07,0x00,0x00,0x00,0x00,0xe0,0x7f,0x00,0x00,
 0xe0,0x81,0x81,0x07,0x00,0x00,0xff,0x0f,0x00,0x00,0x00,0x00,0xf0,0xff,0x00,
 0x00,0xe0,0x81,0x01,0x03,0x00,0x00,0xff,0x0f,0x00,0x00,0x00,0x00,0xf0,0xff,
 0x00,0x00,0xc0,0x80,0x01,0x00,0x00,0x00,0xfe,0x07,0x00,0x00,0x00,0x00,0xe0,
 0x7f,0x00,0x00,0x00,0x80,0x01,0x00,0x00,0x00,0xfe,0x07,0x00,0x00,0x00,0x00,
 0xe0,0x7f,0x00,0x00,0x00,0x80,0x01,0x00,0x00,0x00,0xfc,0x03,0x00,0x00,0x00,
 0x00,0xc0,0x3f,0x00,0x00,0x00,0x80,0x01,0x00,0x00,0x00,0xf8,0x01,0x00,0x00,
 0x00,0x00,0x80,0x1f,0x00,0x00,0x00,0x80,0xc1,0x78,0x00,0x00,0x60,0x00,0x00,
 0x00,0x00,0x00,0x00,0x06,0x00,0x00,0x30,0x9e,0xe1,0x31,0x00,0x00,0x00,0x00,
 0x00,0x00,0x00,0x00,0x00,0x00,0x00,0x00,0x78,0x8c,0x31,0x33,0x00,0x00,0x00,
 0x00,0x00,0x00,0x00,0x00,0x00,0x00,0x00,0x00,0xcc,0x8c,0x31,0x33,0x00,0x00,
 0x00,0x00,0x00,0x00,0x00,0x00,0x00,0x00,0x00,0x00,0xcc,0x8c,0x19,0x36,0x00,
 0x00,0x00,0x00,0x00,0x00,0x00,0x00,0x00,0x00,0x00,0x00,0x86,0x8d,0x19,0x36,
 0x00,0x00,0x00,0x00,0x00,0x00,0x00,0x00,0x00,0x00,0x00,0x00,0x86,0x8d,0x19,
 0x36,0x00,0x00,0x00,0x00,0x00,0x00,0x00,0x00,0x00,0x00,0x00,0x00,0x86,0x8d,
 0x19,0x36,0x00,0x00,0x00,0x00,0x00,0x00,0x00,0x00,0x00,0x00,0x00,0x00,0x86,
 0x8d,0x19,0x36,0x00,0x00,0x00,0x00,0x00,0x00,0x00,0x00,0x00,0x00,0x00,0x00,
 0x86,0x8d,0x31,0x33,0x00,0x00,0x00,0x00,0x00,0x00,0x00,0x00,0x00,0x00,0x00,
 0x00,0xcc,0x8c,0x31,0x73,0x00,0x00,0x00,0x00,0x00,0x00,0x00,0x00,0x00,0x00,
 0x00,0x00,0xcc,0x9c,0xe1,0x71,0x00,0x00,0x00,0x00,0x00,0x00,0x00,0x00,0x00,
 0x00,0x00,0x00,0x78,0x9c,0xc1,0x30,0x00,0x00,0x00,0x00,0x00,0x00,0x00,0x00,
 0x00,0x00,0x00,0x00,0x30,0x8c,0x01,0x00,0x00,0x00,0x00,0x00,0x00,0x00,0x00,
 0x00,0x00,0x00,0x00,0x00,0x00,0x80,0x03,0x00,0x00,0x00,0x00,0x00,0x00,0x00,
 0x00,0x00,0x00,0x00,0x00,0x00,0x00,0xc0,0x03,0x00,0x00,0x00,0x00,0x00,0x00,
 0x00,0x00,0x00,0x00,0x00,0x00,0x00,0x00,0xc0,0x07,0x00,0x00,0x00,0x00,0x00,
 0x00,0x00,0x00,0x00,0x00,0x00,0x00,0x00,0x00,0xe0,0x1f,0x00,0x00,0x00,0x00,
 0x00,0x00,0x00,0x00,0x00,0x00,0x00,0x00,0x00,0x00,0xf8,0xff,0xff,0xff,0xff,
 0xff,0xff,0xff,0xff,0xff,0xff,0xff,0xff,0xff,0xff,0xff,0xff};
