#define noname_width 128
#define noname_height 192
static char noname_bits[] = {
 0xff,0xff,0xff,0xff,0xff,0xff,0xff,0xff,0xff,0xff,0xff,0xff,0xff,0xff,0xff,
 0xff,0x1f,0x00,0x00,0x00,0x00,0x00,0x00,0x00,0x00,0x00,0x00,0x00,0x00,0x00,
 0x00,0xf8,0x07,0x00,0x00,0x00,0x00,0x00,0x00,0x00,0x00,0x00,0x00,0x00,0x00,
 0x00,0x00,0xe0,0x03,0x00,0x00,0x00,0x00,0x00,0x00,0x00,0x00,0x00,0x00,0x00,
 0x00,0x00,0x00,0xc0,0x03,0x00,0x00,0x00,0x00,0x00,0x00,0x00,0x00,0x00,0x00,
 0x00,0x00,0x00,0x00,0xc0,0x01,0x00,0x00,0x00,0x00,0x00,0x00,0x00,0x00,0x00,
 0x00,0x00,0x00,0x00,0x00,0x80,0x81,0x07,0x00,0x00,0x00,0x00,0x00,0x00,0x00,
 0x00,0x00,0x00,0x00,0x00,0xe0,0x81,0xc1,0x0c,0x00,0x00,0x00,0x00,0x00,0x00,
 0x00,0x00,0x00,0x00,0x00,0x00,0x30,0x83,0x61,0x08,0x00,0x00,0x00,0x00,0x00,
 0x00,0x00,0x00,0x00,0x00,0x00,0x00,0x18,0x82,0x61,0x00,0x00,0x00,0x00,0x00,
 0x00,0x00,0x00,0x00,0x00,0x00,0x00,0x00,0x18,0x80,0x61,0x00,0x00,0x00,0x00,
 0x00,0x00,0x00,0x00,0x00,0x00,0x00,0x00,0x00,0x18,0x80,0x61,0x07,0x00,0x00,
 0x00,0x00,0x00,0x00,0x00,0x00,0x00,0x00,0x00,0x00,0xd8,0x81,0xe1,0x0c,0x00,
 0x00,0x00,0x00,0x00,0x00,0x00,0x00,0x00,0x00,0x00,0x00,0x38,0x83,0x61,0x18,
 0x00,0x00,0x00,0x00,0x00,0x00,0x00,0x00,0x00,0x00,0x00,0x00,0x18,0x86,0x61,
 0x18,0x00,0x00,0x00,0x00,0x00,0x00,0x00,0x00,0x00,0x00,0x00,0x00,0x18,0x86,
 0x61,0x18,0x00,0x00,0x00,0x00,0x00,0x00,0x00,0x00,0x00,0x00,0x00,0x00,0x18,
 0x86,0x61,0x18,0x00,0x00,0x00,0x00,0x00,0x00,0x00,0x00,0x00,0x00,0x00,0x00,
 0x18,0x86,0xc1,0x0c,0x00,0x00,0x00,0x00,0x00,0x00,0x00,0x00,0x00,0x00,0x00,
 0x00,0x30,0x83,0x81,0x07,0x00,0x00,0x60,0x00,0x00,0x00,0x00,0x00,0x00,0x06,
 0x00,0x00,0xe0,0x81,0x01,0x00,0x00,0x00,0xf0,0x00,0x00,0x00,0x00,0x00,0x00,
 0x0f,0x00,0x00,0x00,0x80,0x01,0x00,0x00,0x00,0xf8,0x01,0x00,0x00,0x00,0x00,
 0x80,0x1f,0x00,0x00,0x00,0x80,0x01,0x00,0x00,0x00,0xfc,0x03,0x00,0x00,0x00,
 0x00,0xc0,0x3f,0x00,0x00,0x00,0x80,0x01,0x00,0x00,0x00,0xfe,0x07,0x00,0x00,
 0x00,0x00,0xe0,0x7f,0x00,0x00,0x00,0x80,0x01,0x03,0x00,0x00,0xff,0x0f,0x00,
 0x00,0x00,0x00,0xf0,0xff,0x00,0x00,0xc0,0x80,0x81,0x07,0x00,0x80,0xff,0x1f,
 0x00,0x00,0x00,0x00,0xf8,0xff,0x01,0x00,0xe0,0x81,0xc1,0x0f,0x00,0xc0,0xff,
 0x3f,0x00,0x00,0x00,0x00,0xfc,0xff,0x03,0x00,0xf0,0x83,0xe1,0x1f,0x00,0xe0,
 0xff,0x7f,0x00,0x00,0x00,0x00,0xfe,0xff,0x07,0x00,0xf8,0x87,0xf1,0x3f,0x00,
 0xf0,0xff,0xff,0x00,0x00,0x00,0x00,0xff,0xff,0x0f,0x00,0xfc,0x8f,0xf1,0x3f,
 0x00,0xf8,0xff,0xff,0x01,0x00,0x00,0x80,0xff,0xff,0x1f,0x00,0xfc,0x8f,0xf9,
 0x7f,0x00,0xfc,0xff,0xff,0x03,0x00,0x00,0xc0,0xff,0xff,0x3f,0x00,0xfe,0x9f,
 0xf9,0x7f,0x00,0xfe,0xff,0xff,0x07,0x00,0x00,0xe0,0xff,0xff,0x7f,0x00,0xfe,
 0x9f,0xf9,0x7f,0x00,0xff,0xff,0xff,0x0f,0x00,0x00,0xf0,0xff,0xff,0xff,0x00,
 0xfe,0x9f,0x79,0x7b,0x00,0xff,0xff,0xff,0x0f,0x00,0x00,0xf0,0xff,0xff,0xff,
 0x00,0xde,0x9e,0x31,0x33,0x80,0xff,0xff,0xff,0x1f,0x00,0x00,0xf8,0xff,0xff,
 0xff,0x01,0xcc,0x8c,0x01,0x03,0x80,0xff,0xff,0xff,0x1f,0x00,0x00,0xf8,0xff,
 0xff,0xff,0x01,0xc0,0x80,0x01,0x00,0x80,0xff,0xff,0xff,0x1f,0x00,0x00,0xf8,
 0xff,0xff,0xff,0x01,0x00,0x80,0x01,0x00,0x80,0xff,0xff,0xff,0x1f,0x00,0x00,
 0xf8,0xff,0xff,0xff,0x01,0x00,0x80,0x01,0x00,0x80,0xff,0xff,0xff,0x1f,0x00,
 0x00,0xf8,0xff,0xff,0xff,0x01,0x00,0x80,0x01,0x00,0x80,0xff,0xf3,0xfc,0x1f,
 0x00,0x00,0xf8,0x3f,0xcf,0xff,0x01,0x00,0x80,0x01,0x00,0x80,0xff,0xf1,0xf8,
 0x1f,0x00,0x00,0xf8,0x1f,0x8f,0xff,0x01,0x00,0x80,0x01,0x00,0x00,0xff,0xf0,
 0xf0,0x0f,0x00,0x00,0xf0,0x0f,0x0f,0xff,0x00,0x00,0x80,0x01,0x00,0x00,0x3c,
 0xf0,0xc0,0x03,0x00,0x00,0xc0,0x03,0x0f,0x3c,0x00,0x00,0x80,0x01,0x00,0x00,
 0x00,0xf0,0x00,0x00,0x00,0x00,0x00,0x00,0x0f,0x00,0x00,0x00,0x80,0x01,0x00,
 0x00,0x00,0xf0,0x00,0x00,0x00,0x00,0x00,0x00,0x0f,0x00,0x00,0x00,0x80,0x01,
 0x00,0x00,0x00,0xf0,0x00,0x00,0x00,0x00,0x00,0x00,0x0f,0x00,0x00,0x00,0x80,
 0x01,0x00,0x00,0x00,0xf0,0x00,0x00,0x00,0x00,0x00,0x00,0x0f,0x00,0x00,0x00,
 0x80,0x01,0x00,0x00,0x00,0xf0,0x00,0x00,0x00,0x00,0x00,0x00,0x0f,0x00,0x00,
 0x00,0x80,0x01,0x00,0x00,0x00,0xf0,0x00,0x00,0x00,0x00,0x00,0x00,0x0f,0x00,
 0x00,0x00,0x80,0x01,0x00,0x00,0x00,0x00,0x00,0x00,0x00,0x00,0x00,0x00,0x00,
 0x00,0x00,0x00,0x80,0x01,0x00,0x00,0x00,0x00,0x00,0x00,0x00,0x00,0x00,0x00,
 0x00,0x00,0x00,0x00,0x80,0x01,0x00,0x00,0x00,0x00,0x00,0x00,0x00,0x00,0x00,
 0x00,0x00,0x00,0x00,0x00,0x80,0x01,0x00,0x00,0x00,0x00,0x00,0x00,0x00,0x00,
 0x00,0x00,0x00,0x00,0x00,0x00,0x80,0x01,0x00,0x00,0x00,0x00,0x00,0x00,0x00,
 0x00,0x00,0x00,0x00,0x00,0x00,0x00,0x80,0x01,0x00,0x00,0x00,0x00,0x00,0x00,
 0x00,0x00,0x00,0x00,0x00,0x00,0x00,0x00,0x80,0x01,0x00,0x00,0x00,0x00,0x00,
 0x00,0x00,0x00,0x00,0x00,0x00,0x00,0x00,0x00,0x80,0x01,0x00,0x00,0x00,0x00,
 0x00,0x00,0x00,0x00,0x00,0x00,0x00,0x00,0x00,0x00,0x80,0x01,0x00,0x00,0x00,
 0x00,0x00,0x00,0x00,0x00,0x00,0x00,0x00,0x00,0x00,0x00,0x80,0x01,0x00,0x00,
 0x00,0x00,0x00,0x00,0x00,0x00,0x00,0x00,0x00,0x00,0x00,0x00,0x80,0x01,0x00,
 0x00,0x00,0x00,0x00,0x00,0x00,0x00,0x00,0x00,0x00,0x00,0x00,0x00,0x80,0x01,
 0x00,0x00,0x00,0x00,0x00,0x00,0x00,0x00,0x00,0x00,0x00,0x00,0x00,0x00,0x80,
 0x01,0x00,0x00,0x00,0x00,0x00,0x00,0x00,0x00,0x00,0x00,0x00,0x00,0x00,0x00,
 0x80,0x01,0x00,0x00,0x00,0x00,0x00,0x00,0x00,0x00,0x00,0x00,0x00,0x00,0x00,
 0x00,0x80,0x01,0x00,0x00,0x00,0x00,0x00,0x00,0x00,0x00,0x00,0x00,0x00,0x00,
 0x00,0x00,0x80,0x01,0x00,0x00,0x00,0x00,0x00,0x00,0x00,0x00,0x00,0x00,0x00,
 0x00,0x00,0x00,0x80,0x01,0x00,0x00,0x00,0x00,0x00,0x00,0x00,0x00,0x00,0x00,
 0x00,0x00,0x00,0x00,0x80,0x01,0x00,0x00,0x00,0x00,0x00,0x00,0x00,0x00,0x00,
 0x00,0x00,0x00,0x00,0x00,0x80,0x01,0x00,0x00,0x00,0x00,0x00,0x00,0x00,0x00,
 0x00,0x00,0x00,0x00,0x00,0x00,0x80,0x01,0x00,0x00,0x00,0x00,0x00,0x00,0x00,
 0x00,0x00,0x00,0x00,0x00,0x00,0x00,0x80,0x01,0x00,0x00,0x00,0x00,0x00,0x00,
 0x00,0x00,0x00,0x00,0x00,0x00,0x00,0x00,0x80,0x01,0x00,0x00,0x00,0x00,0x00,
 0x00,0x00,0x00,0x00,0x00,0x00,0x00,0x00,0x00,0x80,0x01,0x00,0x00,0x00,0x00,
 0x00,0x00,0x00,0x00,0x00,0x00,0x00,0x00,0x00,0x00,0x80,0x01,0x00,0x00,0x00,
 0x00,0x00,0x00,0x00,0x00,0x00,0x00,0x00,0x00,0x00,0x00,0x80,0x01,0x00,0x00,
 0x00,0x00,0x00,0x00,0x00,0x00,0x00,0x00,0x00,0x00,0x00,0x00,0x80,0x01,0x00,
 0x00,0x00,0x00,0x00,0x00,0x00,0x00,0x00,0x00,0x00,0x00,0x00,0x00,0x80,0x01,
 0x00,0x00,0x00,0x00,0x00,0x00,0x00,0x00,0x00,0x00,0x00,0x00,0x00,0x00,0x80,
 0x01,0x00,0x00,0x00,0x00,0x00,0x00,0x00,0x00,0x00,0x00,0x00,0x00,0x00,0x00,
 0x80,0x01,0x00,0x00,0x00,0x00,0x00,0x00,0x00,0x00,0x00,0x00,0x00,0x00,0x00,
 0x00,0x80,0x01,0x00,0x00,0x00,0x00,0x00,0x00,0x00,0x00,0x00,0x00,0x00,0x00,
 0x00,0x00,0x80,0x01,0x00,0x00,0x00,0x00,0x00,0x00,0x00,0x00,0x00,0x00,0x00,
 0x00,0x00,0x00,0x80,0x01,0x00,0x00,0x00,0x00,0x00,0x00,0x00,0x00,0x00,0x00,
 0x00,0x00,0x00,0x00,0x80,0x01,0x00,0x00,0x00,0x00,0x00,0x00,0x00,0x00,0x00,
 0x00,0x00,0x00,0x00,0x00,0x80,0x01,0x00,0x00,0x00,0x60,0x00,0x00,0x00,0x00,
 0x00,0x00,0x06,0x00,0x00,0x00,0x80,0x01,0x00,0x00,0x00,0xf0,0x00,0x00,0x00,
 0x00,0x00,0x00,0x0f,0x00,0x00,0x00,0x80,0x01,0x00,0x00,0x00,0xf8,0x01,0x00,
 0x00,0x00,0x00,0x80,0x1f,0x00,0x00,0x00,0x80,0x01,0x00,0x00,0x00,0xfc,0x03,
 0x00,0x00,0x00,0x00,0xc0,0x3f,0x00,0x00,0x00,0x80,0x01,0x00,0x00,0x00,0xfe,
 0x07,0x00,0x00,0x00,0x00,0xe0,0x7f,0x00,0x00,0x00,0x80,0x01,0x00,0x00,0x00,
 0xff,0x0f,0x00,0x00,0x00,0x00,0xf0,0xff,0x00,0x00,0x00,0x80,0x01,0x00,0x00,
 0x80,0xff,0x1f,0x00,0x00,0x00,0x00,0xf8,0xff,0x01,0x00,0x00,0x80,0x01,0x00,
 0x00,0xc0,0xff,0x3f,0x00,0x00,0x00,0x00,0xfc,0xff,0x03,0x00,0x00,0x80,0x01,
 0x00,0x00,0xe0,0xff,0x7f,0x00,0x00,0x00,0x00,0xfe,0xff,0x07,0x00,0x00,0x80,
 0x01,0x00,0x00,0xf0,0xff,0xff,0x00,0x00,0x00,0x00,0xff,0xff,0x0f,0x00,0x00,
 0x80,0x01,0x00,0x00,0xf8,0xff,0xff,0x01,0x00,0x00,0x80,0xff,0xff,0x1f,0x00,
 0x00,0x80,0x01,0x00,0x00,0xfc,0xff,0xff,0x03,0x00,0x00,0xc0,0xff,0xff,0x3f,
 0x00,0x00,0x80,0x01,0x00,0x00,0xfe,0xff,0xff,0x07,0x00,0x00,0xe0,0xff,0xff,
 0x7f,0x00,0x00,0x80,0x01,0x00,0x00,0xff,0xff,0xff,0x0f,0x00,0x00,0xf0,0xff,
 0xff,0xff,0x00,0x00,0x80,0x01,0x00,0x00,0xff,0xff,0xff,0x0f,0x00,0x00,0xf0,
 0xff,0xff,0xff,0x00,0x00,0x80,0x01,0x00,0x80,0xff,0xff,0xff,0x1f,0x00,0x00,
 0xf8,0xff,0xff,0xff,0x01,0x00,0x80,0x01,0x00,0x80,0xff,0xff,0xff,0x1f,0x00,
 0x00,0xf8,0xff,0xff,0xff,0x01,0x00,0x80,0x01,0x00,0x80,0xff,0xff,0xff,0x1f,
 0x00,0x00,0xf8,0xff,0xff,0xff,0x01,0x00,0x80,0x01,0x00,0x80,0xff,0xff,0xff,
 0x1f,0x00,0x00,0xf8,0xff,0xff,0xff,0x01,0x00,0x80,0x01,0x00,0x80,0xff,0xff,
 0xff,0x1f,0x00,0x00,0xf8,0xff,0xff,0xff,0x01,0x00,0x80,0x01,0x00,0x80,0xff,
 0xf3,0xfc,0x1f,0x00,0x00,0xf8,0x3f,0xcf,0xff,0x01,0x00,0x80,0x01,0x00,0x80,
 0xff,0xf1,0xf8,0x1f,0x00,0x00,0xf8,0x1f,0x8f,0xff,0x01,0x00,0x80,0x01,0x00,
 0x00,0xff,0xf0,0xf0,0x0f,0x00,0x00,0xf0,0x0f,0x0f,0xff,0x00,0x00,0x80,0x01,
 0x00,0x00,0x3c,0xf0,0xc0,0x03,0x00,0x00,0xc0,0x03,0x0f,0x3c,0x00,0x00,0x80,
 0x01,0x00,0x00,0x00,0xf0,0x00,0x00,0x00,0x00,0x00,0x00,0x0f,0x00,0x00,0x00,
 0x80,0x01,0x00,0x00,0x00,0xf0,0x00,0x00,0x00,0x00,0x00,0x00,0x0f,0x00,0x00,
 0x00,0x80,0x01,0x00,0x00,0x00,0xf0,0x00,0x00,0x00,0x00,0x00,0x00,0x0f,0x00,
 0x00,0x00,0x80,0x01,0x00,0x00,0x00,0xf0,0x00,0x00,0x00,0x00,0x00,0x00,0x0f,
 0x00,0x00,0x00,0x80,0x01,0x00,0x00,0x00,0xf0,0x00,0x00,0x00,0x00,0x00,0x00,
 0x0f,0x00,0x00,0x00,0x80,0x01,0x00,0x00,0x00,0xf0,0x00,0x00,0x00,0x00,0x00,
 0x00,0x0f,0x00,0x00,0x00,0x80,0x01,0x00,0x00,0x00,0x00,0x00,0x00,0x00,0x00,
 0x00,0x00,0x00,0x00,0x00,0x00,0x80,0x01,0x00,0x00,0x00,0x00,0x00,0x00,0x00,
 0x00,0x00,0x00,0x00,0x00,0x00,0x00,0x80,0x01,0x00,0x00,0x00,0x00,0x00,0x00,
 0x00,0x00,0x00,0x00,0x00,0x00,0x00,0x00,0x80,0x01,0x00,0x00,0x00,0x00,0x00,
 0x00,0x00,0x00,0x00,0x00,0x00,0x00,0x00,0x00,0x80,0x01,0x00,0x00,0x00,0x00,
 0x00,0x00,0x00,0x00,0x00,0x00,0x00,0x00,0x00,0x00,0x80,0x01,0x00,0x00,0x00,
 0x00,0x00,0x00,0x00,0x00,0x00,0x00,0x00,0x00,0x00,0x00,0x80,0x01,0x00,0x00,
 0x00,0x00,0x00,0x00,0x00,0x00,0x00,0x00,0x00,0x00,0x00,0x00,0x80,0x01,0x00,
 0x00,0x00,0x00,0x00,0x00,0x00,0x00,0x00,0x00,0x00,0x00,0x00,0x00,0x80,0x01,
 0x00,0x00,0x00,0x00,0x00,0x00,0x00,0x00,0x00,0x00,0x00,0x00,0x00,0x00,0x80,
 0x01,0x00,0x00,0x00,0x00,0x00,0x00,0x00,0x00,0x00,0x00,0x00,0x00,0x00,0x00,
 0x80,0x01,0x00,0x00,0x00,0x00,0x00,0x00,0x00,0x00,0x00,0x00,0x00,0x00,0x00,
 0x00,0x80,0x01,0x00,0x00,0x00,0x00,0x00,0x00,0x00,0x00,0x00,0x00,0x00,0x00,
 0x00,0x00,0x80,0x01,0x00,0x00,0x00,0x00,0x00,0x00,0x00,0x00,0x00,0x00,0x00,
 0x00,0x00,0x00,0x80,0x01,0x00,0x00,0x00,0x00,0x00,0x00,0x00,0x00,0x00,0x00,
 0x00,0x00,0x00,0x00,0x80,0x01,0x00,0x00,0x00,0x00,0x00,0x00,0x00,0x00,0x00,
 0x00,0x00,0x00,0x00,0x00,0x80,0x01,0x00,0x00,0x00,0x00,0x00,0x00,0x00,0x00,
 0x00,0x00,0x00,0x00,0x00,0x00,0x80,0x01,0x00,0x00,0x00,0x00,0x00,0x00,0x00,
 0x00,0x00,0x00,0x00,0x00,0x00,0x00,0x80,0x01,0x00,0x00,0x00,0x00,0x00,0x00,
 0x00,0x00,0x00,0x00,0x00,0x00,0x00,0x00,0x80,0x01,0x00,0x00,0x00,0x00,0x00,
 0x00,0x00,0x00,0x00,0x00,0x00,0x00,0x00,0x00,0x80,0x01,0x00,0x00,0x00,0x00,
 0x00,0x00,0x00,0x00,0x00,0x00,0x00,0x00,0x00,0x00,0x80,0x01,0x00,0x00,0x00,
 0x00,0x00,0x00,0x00,0x00,0x00,0x00,0x00,0x00,0x00,0x00,0x80,0x01,0x00,0x00,
 0x00,0x00,0x00,0x00,0x00,0x00,0x00,0x00,0x00,0x00,0x00,0x00,0x80,0x01,0x00,
 0x00,0x00,0x00,0x00,0x00,0x00,0x00,0x00,0x00,0x00,0x00,0x00,0x00,0x80,0x01,
 0x00,0x00,0x00,0x00,0x00,0x00,0x00,0x00,0x00,0x00,0x00,0x00,0x00,0x00,0x80,
 0x01,0x00,0x00,0x00,0x00,0x00,0x00,0x00,0x00,0x00,0x00,0x00,0x00,0x00,0x00,
 0x80,0x01,0x00,0x00,0x00,0x00,0x00,0x00,0x00,0x00,0x00,0x00,0x00,0x00,0x00,
 0x00,0x80,0x01,0x00,0x00,0x00,0x00,0x00,0x00,0x00,0x00,0x00,0x00,0x00,0x00,
 0x00,0x00,0x80,0x01,0x00,0x00,0x00,0x00,0x00,0x00,0x00,0x00,0x00,0x00,0x00,
 0x00,0x00,0x00,0x80,0x01,0x00,0x00,0x00,0x00,0x00,0x00,0x00,0x00,0x00,0x00,
 0x00,0x00,0x00,0x00,0x80,0x01,0x00,0x00,0x00,0x00,0x00,0x00,0x00,0x00,0x00,
 0x00,0x00,0x00,0x00,0x00,0x80,0x01,0x00,0x00,0x00,0x00,0x00,0x00,0x00,0x00,
 0x00,0x00,0x00,0x00,0x00,0x00,0x80,0x01,0x00,0x00,0x00,0x00,0x00,0x00,0x00,
 0x00,0x00,0x00,0x00,0x00,0x00,0x00,0x80,0x01,0x00,0x00,0x00,0x00,0x00,0x00,
 0x00,0x00,0x00,0x00,0x00,0x00,0x00,0x00,0x80,0x01,0x00,0x00,0x00,0xf0,0x00,
 0x00,0x00,0x00,0x00,0x00,0x0f,0x00,0x00,0x00,0x80,0x01,0x00,0x00,0x00,0xf0,
 0x00,0x00,0x00,0x00,0x00,0x00,0x0f,0x00,0x00,0x00,0x80,0x01,0x00,0x00,0x00,
 0xf0,0x00,0x00,0x00,0x00,0x00,0x00,0x0f,0x00,0x00,0x00,0x80,0x01,0x00,0x00,
 0x00,0xf0,0x00,0x00,0x00,0x00,0x00,0x00,0x0f,0x00,0x00,0x00,0x80,0x01,0x00,
 0x00,0x00,0xf0,0x00,0x00,0x00,0x00,0x00,0x00,0x0f,0x00,0x00,0x00,0x80,0x01,
 0x00,0x00,0x00,0xf0,0x00,0x00,0x00,0x00,0x00,0x00,0x0f,0x00,0x00,0x00,0x80,
 0x01,0x00,0x00,0x3c,0xf0,0xc0,0x03,0x00,0x00,0xc0,0x03,0x0f,0x3c,0x00,0x00,
 0x80,0x01,0x00,0x00,0xff,0xf0,0xf0,0x0f,0x00,0x00,0xf0,0x0f,0x0f,0xff,0x00,
 0x00,0x80,0x01,0x00,0x80,0xff,0xf1,0xf8,0x1f,0x00,0x00,0xf8,0x1f,0x8f,0xff,
 0x01,0x00,0x80,0x01,0x00,0x80,0xff,0xf3,0xfc,0x1f,0x00,0x00,0xf8,0x3f,0xcf,
 0xff,0x01,0x00,0x80,0x01,0x00,0x80,0xff,0xff,0xff,0x1f,0x00,0x00,0xf8,0xff,
 0xff,0xff,0x01,0x00,0x80,0x01,0x00,0x80,0xff,0xff,0xff,0x1f,0x00,0x00,0xf8,
 0xff,0xff,0xff,0x01,0x00,0x80,0x01,0x00,0x80,0xff,0xff,0xff,0x1f,0x00,0x00,
 0xf8,0xff,0xff,0xff,0x01,0x00,0x80,0x01,0x03,0x80,0xff,0xff,0xff,0x1f,0x00,
 0x00,0xf8,0xff,0xff,0xff,0x01,0xc0,0x80,0x31,0x33,0x80,0xff,0xff,0xff,0x1f,
 0x00,0x00,0xf8,0xff,0xff,0xff,0x01,0xcc,0x8c,0x79,0x7b,0x00,0xff,0xff,0xff,
 0x0f,0x00,0x00,0xf0,0xff,0xff,0xff,0x00,0xde,0x9e,0xf9,0x7f,0x00,0xff,0xff,
 0xff,0x0f,0x00,0x00,0xf0,0xff,0xff,0xff,0x00,0xfe,0x9f,0xf9,0x7f,0x00,0xfe,
 0xff,0xff,0x07,0x00,0x00,0xe0,0xff,0xff,0x7f,0x00,0xfe,0x9f,0xf9,0x7f,0x00,
 0xfc,0xff,0xff,0x03,0x00,0x00,0xc0,0xff,0xff,0x3f,0x00,0xfe,0x9f,0xf1,0x3f,
 0x00,0xf8,0xff,0xff,0x01,0x00,0x00,0x80,0xff,0xff,0x1f,0x00,0xfc,0x8f,0xf1,
 0x3f,0x00,0xf0,0xff,0xff,0x00,0x00,0x00,0x00,0xff,0xff,0x0f,0x00,0xfc,0x8f,
 0xe1,0x1f,0x00,0xe0,0xff,0x7f,0x00,0x00,0x00,0x00,0xfe,0xff,0x07,0x00,0xf8,
 0x87,0xc1,0x0f,0x00,0xc0,0xff,0x3f,0x00,0x00,0x00,0x00,0xfc,0xff,0x03,0x00,
 0xf0,0x83,0x81,0x07,0x00,0x80,0xff,0x1f,0x00,0x00,0x00,0x00,0xf8,0xff,0x01,
 0x00,0xe0,0x81,0x01,0x03,0x00,0x00,0xff,0x0f,0x00,0x00,0x00,0x00,0xf0,0xff,
 0x00,0x00,0xc0,0x80,0x01,0x00,0x00,0x00,0xfe,0x07,0x00,0x00,0x00,0x00,0xe0,
 0x7f,0x00,0x00,0x00,0x80,0x01,0x00,0x00,0x00,0xfc,0x03,0x00,0x00,0x00,0x00,
 0xc0,0x3f,0x00,0x00,0x00,0x80,0x01,0x00,0x00,0x00,0xf8,0x01,0x00,0x00,0x00,
 0x00,0x80,0x1f,0x00,0x00,0x00,0x80,0x01,0x00,0x00,0x00,0xf0,0x00,0x00,0x00,
 0x00,0x00,0x00,0x0f,0x00,0x00,0x00,0x80,0x81,0x07,0x00,0x00,0x60,0x00,0x00,
 0x00,0x00,0x00,0x00,0x06,0x00,0x00,0xe0,0x81,0xc1,0x0c,0x00,0x00,0x00,0x00,
 0x00,0x00,0x00,0x00,0x00,0x00,0x00,0x00,0x30,0x83,0x61,0x18,0x00,0x00,0x00,
 0x00,0x00,0x00,0x00,0x00,0x00,0x00,0x00,0x00,0x18,0x86,0x61,0x18,0x00,0x00,
 0x00,0x00,0x00,0x00,0x00,0x00,0x00,0x00,0x00,0x00,0x18,0x86,0x61,0x18,0x00,
 0x00,0x00,0x00,0x00,0x00,0x00,0x00,0x00,0x00,0x00,0x00,0x18,0x86,0x61,0x18,
 0x00,0x00,0x00,0x00,0x00,0x00,0x00,0x00,0x00,0x00,0x00,0x00,0x18,0x86,0xc1,
 0x1c,0x00,0x00,0x00,0x00,0x00,0x00,0x00,0x00,0x00,0x00,0x00,0x00,0x30,0x87,
 0x81,0x1b,0x00,0x00,0x00,0x00,0x00,0x00,0x00,0x00,0x00,0x00,0x00,0x00,0xe0,
 0x86,0x01,0x18,0x00,0x00,0x00,0x00,0x00,0x00,0x00,0x00,0x00,0x00,0x00,0x00,
 0x00,0x86,0x01,0x18,0x00,0x00,0x00,0x00,0x00,0x00,0x00,0x00,0x00,0x00,0x00,
 0x00,0x00,0x86,0x41,0x18,0x00,0x00,0x00,0x00,0x00,0x00,0x00,0x00,0x00,0x00,
 0x00,0x00,0x10,0x86,0xc1,0x0c,0x00,0x00,0x00,0x00,0x00,0x00,0x00,0x00,0x00,
 0x00,0x00,0x00,0x30,0x83,0x81,0x07,0x00,0x00,0x00,0x00,0x00,0x00,0x00,0x00,
 0x00,0x00,0x00,0x00,0xe0,0x81,0x01,0x00,0x00,0x00,0x00,0x00,0x00,0x00,0x00,
 0x00,0x00,0x00,0x00,0x00,0x00,0x80,0x03,0x00,0x00,0x00,0x00,0x00,0x00,0x00,
 0x00,0x00,0x00,0x00,0x00,0x00,0x00,0xc0,0x03,0x00,0x00,0x00,0x00,0x00,0x00,
 0x00,0x00,0x00,0x00,0x00,0x00,0x00,0x00,0xc0,0x07,0x00,0x00,0x00,0x00,0x00,
 0x00,0x00,0x00,0x00,0x00,0x00,0x00,0x00,0x00,0xe0,0x1f,0x00,0x00,0x00,0x00,
 0x00,0x00,0x00,0x00,0x00,0x00,0x00,0x00,0x00,0x00,0xf8,0xff,0xff,0xff,0xff,
 0xff,0xff,0xff,0xff,0xff,0xff,0xff,0xff,0xff,0xff,0xff,0xff};
